<?xml version="1.0" encoding="UTF-8"?>
<!DOCTYPE svg PUBLIC "-//W3C//DTD SVG 1.1//EN" "http://www.w3.org/Graphics/SVG/1.1/DTD/svg11.dtd">
<!-- Creator: CorelDRAW 2019 (64-Bit) -->
<svg xmlns="http://www.w3.org/2000/svg" xml:space="preserve" width="329.992mm" height="309.384mm" version="1.1" style="shape-rendering:geometricPrecision; text-rendering:geometricPrecision; image-rendering:optimizeQuality; fill-rule:evenodd; clip-rule:evenodd"
viewBox="0 0 19683.6 18454.34"
 xmlns:xlink="http://www.w3.org/1999/xlink">
 <defs>
  <style type="text/css">
   <![CDATA[
    .fil0 {fill:#212121}
   ]]>
  </style>
 </defs>
 <g id="Layer_x0020_1">
  <metadata id="CorelCorpID_0Corel-Layer"/>
  <path class="fil0" d="M4649.7 16093.31l3330.34 -4038.38 1523.41 1943.1 -2936.28 3734.02c-1124.53,1428.89 -3205.39,-76.89 -1917.47,-1638.74l0 0zm3889.4 -9196.47c317.18,-1034.82 171.4,-1919.07 -1020.41,-3232.62l-2912.25 -3503.35c-413.29,-485.37 -1387.24,227.47 -980.36,815.36l2329.15 2869c440.52,535.03 -378.05,1243.07 -832.98,692.02l-2409.25 -2966.71c-448.53,-514.21 -1376.03,164.99 -906.67,752.89 679.2,816.97 1730.05,2151.35 2409.25,2968.31 470.96,478.97 -245.09,1188.61 -709.64,591.1l-2391.63 -2947.49c-350.81,-381.25 -924.29,-144.17 -1076.47,301.15 -163.4,475.76 238.68,823.37 512.61,1175.79l2668.76 3447.28c828.18,959.53 1754.07,1528.21 2830.55,1206.23 164.99,-49.66 366.83,-150.58 583.09,-283.53l7170.08 9255.74c386.06,498.19 1130.94,551.05 1614.71,148.98l110.53 -91.31c544.65,-453.34 632.75,-1281.52 166.6,-1816.55l-7592.98 -8723.92c221.06,-246.7 382.85,-480.57 437.31,-658.38l0 0zm2029.6 2018.39l1180.6 -1432.09c-1518.6,-3764.46 4108.86,-8781.59 6836.89,-6474.86 3314.32,2804.92 -1611.51,9564.91 -5073.2,7894.14l-1398.45 1776.49 -1545.83 -1763.68 0 0z"/>
 </g>
</svg>
